# xmcd
#
# Track frame offsets: 
#        150
#        20509
#        37061
#        48918
#        65364
#        83976
#        109947
#        128100
#        143881
#        154809
#        173685
#
# Disc length: 2498 seconds
#
# Revision: 0
# Processed by: cddbd v1.5.1PL2 Copyright (c) Steve Scherf et al.
# Submitted via: ExactAudioCopy v0.95b4
#
DISCID=9209c00b
DTITLE=Twotrack - Burn the Bridge
DYEAR=2006
DGENRE=Folk/Rock
TTITLE0=Made Up My Mind
TTITLE1=Adalae Highway
TTITLE2=Headlight
TTITLE3=Blanket on the Sun
TTITLE4=Underground
TTITLE5=The Ghost of Thomas Morgan
TTITLE6=Burn the Bridge
TTITLE7=Everytime
TTITLE8=Lonely Road
TTITLE9=Last Supper for Breakfast
TTITLE10=Let Me Down Easy
EXTD=
EXTT0=
EXTT1=
EXTT2=
EXTT3=
EXTT4=
EXTT5=
EXTT6=
EXTT7=
EXTT8=
EXTT9=
EXTT10=
PLAYORDER=
